/* XPM */
static char *_489851491719[] = {
/* columns rows colors chars-per-pixel */
"64 64 40 1 ",
"  c DimGray",
". c gray42",
"X c #6C6C6C",
"o c #6F6F6F",
"O c gray44",
"+ c gray45",
"@ c #737575",
"# c #747474",
"$ c #777777",
"% c #767878",
"& c gray47",
"* c gray48",
"= c #7A7B7B",
"- c #7B7B7B",
"; c #7C7C7C",
": c gray49",
"> c gray50",
", c #7F8080",
"< c #7F8181",
"1 c #5ECFF6",
"2 c #78CFFC",
"3 c #5EE8F6",
"4 c #5EEDF6",
"5 c #78E8FC",
"6 c #78EDFC",
"7 c #808080",
"8 c #838383",
"9 c #848484",
"0 c gray53",
"q c #888888",
"w c gray54",
"e c #8B8B8B",
"r c #8B8D8D",
"t c gray55",
"y c #8E8E8E",
"u c gray56",
"i c #8E9090",
"p c #909090",
"a c #C8E8FF",
"s c white",
/* pixels */
"*7$:+$+$+$$+$+$++$9779qpppppppe= o +$pq777777$$+$+$+$$++:**7777$",
"7777$$$+$++$+$+$$$77777pppppppe.+p.+9pptq777*+++$+$$++$++$$$$777",
"777:*$$++$+$+$$+$+:777qqppppppy+yp+o:y9ppq977:$$+. o+$$$+$++$:77",
"7777::+$$+::7:+$+$7777tuppppppwpp:+o*$9pppq77*+$+o .o$*$*$$++$77",
"*7777:7$:$wywww77$ppqpppppyppp:97:$+$$+qpp77pp9*-o..++777$7:$+$:",
"$*7:7777::7ppppp99ppppppppe+ppp+*+$$*+$7ptttppp79: .$:77777:$$$*",
"+$*$::77779ppppppyyppppppp9*9:$$$+$+wpppppppppp9+*p+wq777777*7++",
"$++$$$:7777ppppsaa29pppppp9**$+$+$7p7pppyyw9pppp.ssa297779977:*$",
"*+$+$$$$77:*pwysaa22y,yp7:7$$+$@+$$wpppppw97799pssaa22pppp97777:",
":$+$+$+$$**$$*$sa2222$$y:$$++$@$$$:7ppppp99777wssaa2222pppp7777:",
":$$++o.$$+$++$$222144$+$$++$$+$,q9pppp7*9777779saa22112yy9::7777",
":*:*+..++$+$$+$+2243.++$+$$$$222atyppp:$=**$$:77aa22442w77:$7777",
"7:77wp$$:w7:*$$**$  .+$+$:7saa22aaayyw$$$+$++:$$*$2222w79:$$::77",
"7*ypppwyypy7**$*77+. +$+o*7saa222aaa797*$++$+$+$7$$$$*w7w:++$$:7",
"$$wyppppppy$$7:7:7:$::*+*:77aaa222447777$++p7w$wy7+$$+$p9$$+$+*$",
"*wppppppppw:$7:$$:7777:o7777=aa5214:7777+$tpppq7y7*$$++py$$+++$+",
"::7wypppppw:$+$+$+7777777777*$444479yttww88pppppyp9*wp9pp$$o+.o+",
"7:79pw9wppp**$+$+$*7*:*77:77$$@34@*+y$yppppppppppppp7wpppp$:y..+",
":7779797wppp7:$+$+$:*+$+$$$$+$+$$+$$>$ppppppppppppppppp9pppp.+$:",
"777*$777wppp9:+$+$+$+$+$+$+@$+$+$$+:$:pywtqpppppw$:pppsa2pppy$7,",
"77*+$$:9ww*p*$$$$+$+$+ssaaa$$+$++$+*$*9q>>7saaap*:+*:sa22 o+7777",
"*::$$77:*$$*::::*$+$sssaaaaa+$+$***,7:o.:>saaaaa$$$$sa243 .o*777",
"$**+:wp$*$*77777*:ssssaaaaaa2$$+*777:..o*saa22aaa$$w2224*.. $77:",
"+$$$wwpyp7:7777ssssaaaaaaaa222*$*:77 .*+saa2226aa$*:yypp@...+77*",
"$$$*ppppw7777sssssaa22aaaa22224i$797:777aa2222444pwppppp +..  o$",
":pp7ppppw:777ssssaa2222aa5222144uy077777a22221444pppppppyt@09.o:",
"9wyypyypyyy:77ssaa22222234444444yu77777s22221444pp7pppppuppp. .$",
"yyw77:yppyp7:77saa2222224444444rw:u77$:s222244497**9ppppppu,: $7",
"7p97779yw:7:$$*:72222224444ppp79*$:::$+.o$4444:+:$$*wwypq9777777",
"77777777777:**$$77$$224449ppy$+$+$**7$..+++$$+$$$$+*t:9pq7777777",
"777777:*$$:7::$$799$+$+$$+y9p+$+$@+$$. .*$+$*$$+$:$+p$7797777777",
"777y99saa2w797$+pp7$$+$+$$$$$$+$$+$::++:y+$$7y:+$7qpp79777797777",
"77:pysaa2229wp++$pw$7$$$++@$7*$:*assssaypw::wyppwpppppppywpw9777",
"7777saa2222ip0$$yyywyw+*:$$$:,:7aaassaaappw7ppppypppppppppppypw7",
"p977aa2214ppw*+*+ppppy977**$:77aaaaaaaaa4iiuppppppppppppppppppyp",
"p77:ya224ppw7$+..ypyp$$$**7777aaaaaaaaa644i7pppppppppppppppppppp",
"9777wy**wppp$+$$$ww9$$++$*:7:saaaaaa2222444@7*pp7:7p:7yppppppppp",
"7777*$$$7pp8$$++$*$*+$+$+$77saaaaaa22221444@$:9*$$$*$$*yppppwpw9",
"7777$+$:,y$$$+$++$+$+$$$+$$$aaaa2222143444*+$+$++$$$$+$7ppy799:7",
"7777$$$%$+$$++$$$++$$**+$+$$$aaa222244444@$$+$$$$7*++$+$ypy77777",
"7777777:$$+$y$++$a2+$$99*$$$$++$$24444**$$+$77*7yypp$$$:w9977777",
"777777777pypp8$$a222*yppwp7w*$$++$..+$$++py$ywyppppp::::77777777",
"777777777tpppy$+2222pppppppy:*$+.+oo++$$8pyypppppyppww7777777777",
"7:77777777999:$$+222ppppyypp9:*$ ..+$+$7ppppppw977yywww777w77777",
"o.:777777777777$$$22*77797pp77:7o+*7:$:ypp997sssaa4iipppyw9pyw9:",
" .$777:77777:777:+$+$:777779777:7*wp97wppp7ssssaa544ipppppppppp7",
"7.o$:*:*:7:*::7t7$$+*7777777::+799ppppppp9ssssaa2244477wpwpppppp",
"..o77:$$**$$+$*w$$$$$77:777*$$$*7pppppppsssaaaa2221444$7::77pp9w",
"$$$$+:$+$*:$+$+$$+$+$$*$:::$+$+saassssssssaa22222221444$*:77pw,$",
"$*+$$++$+$$+$+$++$+$++$+$$$$$+$saaassssssaa2222222214444*,7,777*",
"w:*$+$+$$$$$$++sa+$$$+$$$++$+$+$aaaasssssa22222214444444***797y9",
"y::**$$++*$::wsaaa$%+$*:,$+*$+$+$aaaassss62222224444444$:$$:9ppy",
"yyw7::$$ppwp:saa22224799yy7:$$+$@$aa22224441224444:7:*:77:$*77pp",
"yyw7yppppppppsa222214pppu:7:$*$$$++a222144441244*77777777::77ppp",
"pyw7qpppppp79y222214prpp777::$$+$$$+44444444444$$7777,,:w99::wyp",
"py7779pppp7$:wi22244p9:+$$$**$+$+*:::44444444$:p77777*$$7yp**99y",
"77777777w9:$$y*$$+44w@*$$$+$+$$$$$:::7.*9p$ww79p7777:$+$$:*$:77y",
"7777777797$$$$$$$*9$+$+$++$$$++++**$,,99py7ppwpy7777*$$$$$$7777:",
"7777::::77*$7:++$+$+$$+$+$7:$+$$*:777779wypppppp:::7$$$++$*77777",
"7777:*$$$:::7:+$++$$*$$++$7*$+::*77777777pp77yp7$$:*$$+$$+,77777",
"7*$+$$++***:7:$+++.w:78p$:wy97$77777777779p779:+$+$$$+$+$$777777",
"*$+$+$+$+$$*$$$$+..ywwwpq79p9777777777777797:**$+$+$+$+$$::777**",
"+++$++$+$+++$$++$+$ppppppppppwyw77:77779777**$$+$+$+$+$+$:7777$$",
"$$+$$$++$$$++$+$$+$ppppppppppppy$$$+-797p77$$$+$+$+$+$+$$:777:$+"
};
